<svg fill="#51e3f9" viewBox="0 0 100 100" xmlns="http://www.w3.org/2000/svg"><path d="m7.0003532 962.36219c-1.6569 0-3 1.34315-3 3s1.3431 3 3 3h11.9687998c4.9652 12.29749 9.8559 24.61749 14.7812 36.93751l-4.5312 10.9062c-.3796.9093-.2728 2.0057.2751 2.8246.548.8189 1.5208 1.3358 2.5061 1.3317h50c1.5849.022 3.0427-1.4149 3.0427-3s-1.4578-3.0224-3.0427-3h-45.5l2.5938-6.1875 48.1562-3.8437c1.2605-.099 2.4015-1.081 2.6875-2.3125l6-26.00007c.3924-1.75123-1.1429-3.6621-2.9375-3.65625h-65.9688l-3.25-8.125c-.445-1.09982-1.5948-1.87497-2.7812-1.875zm22.4374998 16h59.7813l-4.6563 20.18749-45.5937 3.62502zm12.5625 44.00001c-5.4873 0-10 4.5126-10 10 0 5.4873 4.5127 10 10 10s10-4.5127 10-10-4.5127-10-10-10zm30 0c-5.4873 0-10 4.5127-10 10s4.5127 10 10 10 10-4.5127 10-10c0-5.4874-4.5127-10-10-10zm-30 6c2.2447 0 4 1.7553 4 4s-1.7553 4-4 4c-2.2445 0-4-1.7554-4-4s1.7555-4 4-4zm30 0c2.2445 0 4 1.7554 4 4s-1.7555 4-4 4c-2.2447 0-4-1.7553-4-4s1.7553-4 4-4z" fill="#51e3f9" transform="translate(0 -952.36218)"/></svg>